<?xml version="1.0" standalone="no"?>
<!DOCTYPE svg PUBLIC "-//W3C//DTD SVG 20010904//EN"
 "http://www.w3.org/TR/2001/REC-SVG-20010904/DTD/svg10.dtd">
<svg version="1.0" xmlns="http://www.w3.org/2000/svg"
 width="280.000000pt" height="180.000000pt" viewBox="0 0 280.000000 180.000000"
 preserveAspectRatio="xMidYMid meet">

<g transform="translate(0.000000,180.000000) scale(0.100000,-0.100000)"
fill="#000000" stroke="none">
<path d="M1351 1461 c-11 -27 -21 -61 -21 -75 0 -25 -2 -26 -42 -21 l-43 6 38
-15 c47 -17 42 -11 60 -71 13 -42 15 -44 10 -12 -6 41 9 50 27 17 6 -11 16
-20 23 -20 8 0 8 3 2 8 -25 17 -55 72 -55 99 0 17 7 52 15 78 19 65 13 67 -14
6z"/>
<path d="M1421 1510 c-1 -3 6 -27 14 -54 21 -67 19 -102 -7 -139 -12 -18 -15
-26 -8 -19 24 21 32 13 27 -25 -5 -32 -3 -30 10 12 18 60 13 54 60 71 l38 15
-42 -4 -41 -5 -7 42 c-5 33 -43 124 -44 106z"/>
<path d="M1258 1304 c18 -21 32 -42 32 -46 0 -5 -15 -8 -32 -9 -34 -1 -32 -3
14 -13 36 -8 50 -35 38 -75 -5 -19 -5 -29 0 -26 6 3 13 20 18 37 l8 32 21 -21
c11 -11 26 -29 32 -39 8 -13 14 -15 17 -7 9 22 45 63 55 63 5 0 9 -8 9 -18 0
-10 7 -27 15 -38 14 -18 14 -17 5 9 -5 16 -10 33 -10 38 0 18 41 49 68 50 21
2 19 3 -11 8 l-38 6 37 44 c26 30 31 40 17 33 -12 -7 -32 -26 -45 -43 -12 -17
-37 -46 -54 -63 -17 -18 -35 -42 -38 -54 -4 -12 -11 -22 -16 -22 -5 0 -12 10
-16 22 -3 12 -21 36 -38 54 -17 17 -42 46 -54 63 -13 17 -33 36 -45 42 -16 9
-13 3 11 -27z"/>
<path d="M1238 1214 c47 -33 48 -104 2 -104 -11 0 -20 -5 -20 -11 0 -6 7 -8
16 -5 9 3 19 6 23 6 10 0 31 46 31 66 0 18 -44 64 -62 64 -7 0 -2 -7 10 -16z"/>
<path d="M1535 1205 c-27 -26 -31 -50 -15 -75 8 -11 9 -9 5 11 -5 19 1 34 20
57 32 38 25 42 -10 7z"/>
<path d="M1365 1100 c-3 -5 -17 -10 -31 -10 -13 0 -24 -4 -24 -9 0 -5 -16 -15
-36 -21 -19 -7 -34 -14 -31 -16 2 -2 25 3 51 12 43 15 49 15 63 1 14 -14 11
-17 -25 -36 -33 -17 -46 -19 -68 -11 -15 6 -29 9 -31 6 -3 -2 6 -8 19 -12 23
-7 23 -7 -7 -20 -35 -15 -19 -19 20 -4 19 7 36 5 67 -7 l42 -17 -49 -22 c-46
-20 -53 -20 -84 -8 -19 8 -36 12 -38 10 -3 -2 5 -7 16 -11 12 -3 21 -11 21
-16 0 -5 9 -9 20 -9 12 0 40 -10 63 -22 l42 -23 -77 -3 c-45 -2 -87 2 -99 9
-14 7 -19 7 -15 0 5 -7 -51 -11 -186 -14 -106 -1 79 -2 412 -2 333 0 518 1
412 2 -135 3 -191 7 -186 14 4 7 -1 7 -15 0 -12 -7 -54 -11 -99 -9 l-77 3 42
23 c23 12 52 22 63 22 13 0 18 4 15 11 -4 6 -12 8 -19 6 -6 -2 -33 5 -61 17
l-49 22 42 17 c31 13 48 14 68 7 15 -6 29 -9 31 -6 3 2 -5 7 -16 11 -12 4 -18
11 -15 17 5 8 1 9 -10 5 -10 -4 -35 2 -58 14 -37 19 -39 22 -25 36 14 14 20
14 63 -1 26 -9 49 -14 51 -12 3 2 -12 9 -31 16 -20 6 -36 15 -36 20 0 4 -10
10 -22 13 -13 2 -32 8 -43 12 -16 7 -15 4 5 -12 l25 -21 -27 -7 c-16 -4 -40
-4 -55 0 l-28 7 24 19 c13 10 18 19 13 19 -6 0 -14 -4 -17 -10z m95 -93 l25
-9 -30 -14 c-16 -7 -41 -13 -55 -13 -14 0 -38 6 -55 13 l-30 14 25 9 c14 6 32
13 40 16 16 5 37 1 80 -16z m11 -90 l34 -14 -52 -17 c-50 -17 -56 -17 -104 -1
-28 9 -49 19 -46 21 2 2 21 10 43 19 42 16 73 14 125 -8z"/>
<path d="M1545 1100 c27 -12 35 -12 35 0 0 6 -12 10 -27 9 -25 0 -26 -1 -8 -9z"/>
<path d="M1155 1030 c-3 -5 3 -10 15 -10 12 0 18 5 15 10 -3 6 -10 10 -15 10
-5 0 -12 -4 -15 -10z"/>
<path d="M1615 1030 c-3 -5 3 -10 15 -10 12 0 18 5 15 10 -3 6 -10 10 -15 10
-5 0 -12 -4 -15 -10z"/>
<path d="M1120 960 c0 -5 12 -10 28 -9 24 0 25 1 7 9 -27 12 -35 12 -35 0z"/>
<path d="M1645 960 c-18 -8 -17 -9 8 -9 15 -1 27 4 27 9 0 12 -8 12 -35 0z"/>
<path d="M1570 930 c-8 -5 -10 -10 -5 -10 6 0 17 5 25 10 8 5 11 10 5 10 -5 0
-17 -5 -25 -10z"/>
<path d="M1094 889 c-3 -5 6 -9 20 -9 31 0 34 6 6 13 -11 3 -23 1 -26 -4z"/>
<path d="M1208 893 c7 -3 16 -2 19 1 4 3 -2 6 -13 5 -11 0 -14 -3 -6 -6z"/>
<path d="M1578 893 c7 -3 16 -2 19 1 4 3 -2 6 -13 5 -11 0 -14 -3 -6 -6z"/>
<path d="M1675 890 c-18 -8 -17 -9 8 -9 16 -1 26 3 22 9 -3 6 -7 10 -8 9 -1 0
-11 -4 -22 -9z"/>
<path d="M260 633 l1 -58 13 38 c17 48 34 67 57 67 17 0 19 -9 19 -114 l0
-114 -27 -10 c-23 -9 -16 -10 42 -10 39 0 62 2 52 5 -28 7 -37 45 -37 149 0
85 2 94 18 94 23 0 45 -23 66 -70 l16 -35 -5 34 c-3 18 -5 44 -5 57 0 24 -1
24 -105 24 l-105 0 0 -57z"/>
<path d="M1164 674 c13 -12 16 -38 16 -119 0 -89 -3 -106 -17 -114 -14 -8 -8
-10 27 -10 35 0 41 2 28 10 -16 9 -18 26 -18 129 l0 120 -26 0 c-23 0 -24 -1
-10 -16z"/>
<path d="M1370 677 c24 -12 25 -16 25 -117 0 -101 -1 -105 -25 -117 -22 -11
-18 -13 45 -13 63 0 67 2 45 13 -24 12 -25 15 -25 122 l0 110 33 3 c81 8 101
-97 22 -111 -24 -4 -24 -4 3 -6 15 0 42 6 58 15 25 13 30 20 27 47 -4 47 -50
67 -153 67 -71 0 -77 -2 -55 -13z"/>
<path d="M1976 640 c-4 -14 -18 -33 -30 -42 -18 -15 -19 -18 -3 -18 14 0 17
-10 17 -63 0 -67 10 -87 45 -87 27 0 45 18 44 45 -1 17 -2 16 -8 -5 -4 -16
-14 -25 -26 -25 -18 0 -20 8 -23 67 -3 66 -3 67 25 71 l28 4 -27 2 c-23 1 -27
6 -30 39 -3 34 -4 35 -12 12z"/>
<path d="M528 524 c3 -56 0 -79 -10 -85 -8 -6 4 -9 32 -9 35 1 41 3 28 11 -31
18 -20 117 16 141 18 13 24 9 19 -11 -6 -25 11 -35 28 -15 11 14 10 18 -6 30
-25 18 -31 18 -55 -6 l-20 -20 0 20 c0 12 -7 20 -17 20 -16 0 -18 -9 -15 -76z"/>
<path d="M748 593 c19 -8 15 -61 -5 -66 -17 -4 -17 -5 0 -6 26 -2 23 -56 -5
-75 -12 -9 -18 -16 -12 -16 5 0 16 6 23 13 11 10 14 10 18 0 6 -15 39 -17 48
-3 3 6 -1 7 -9 4 -14 -5 -16 5 -16 65 0 59 -3 72 -19 81 -11 5 -23 10 -28 9
-4 0 -2 -3 5 -6z"/>
<path d="M1021 574 c-40 -51 -17 -144 36 -144 14 0 13 3 -5 16 -18 12 -22 25
-22 69 0 35 5 59 16 69 8 9 11 16 5 16 -5 0 -19 -12 -30 -26z"/>
<path d="M1085 587 c12 -10 16 -22 13 -40 -4 -21 -1 -27 13 -27 12 0 19 7 19
20 0 22 -33 60 -52 60 -6 0 -4 -6 7 -13z"/>
<path d="M1678 593 c6 -2 12 -17 12 -32 0 -22 -7 -29 -42 -41 -49 -18 -68 -42
-52 -67 6 -10 22 -19 35 -20 13 -1 18 0 12 3 -21 9 -16 62 6 74 34 18 43 12
39 -23 -2 -19 2 -39 9 -45 15 -14 53 -16 53 -2 0 5 -7 7 -15 4 -12 -5 -15 6
-15 63 0 70 -10 94 -39 92 -11 0 -12 -2 -3 -6z"/>
<path d="M1799 593 c0 -5 0 -40 1 -80 1 -61 -1 -72 -17 -76 -10 -3 5 -5 32 -5
28 0 42 2 32 5 -15 4 -18 14 -17 61 3 92 1 102 -15 102 -8 0 -15 -3 -16 -7z"/>
<path d="M1879 591 c9 -6 10 -10 2 -16 -9 -5 -9 -10 0 -21 6 -7 15 -11 20 -8
15 9 10 41 -7 48 -23 9 -31 7 -15 -3z"/>
<path d="M2088 524 c3 -56 0 -79 -10 -85 -8 -6 4 -9 32 -9 35 1 41 3 28 11
-20 11 -24 62 -8 104 7 17 7 24 0 20 -6 -3 -10 3 -10 14 0 13 -7 21 -17 21
-16 0 -18 -9 -15 -76z"/>
<path d="M2156 592 c-3 -5 5 -8 17 -8 20 1 22 -4 25 -64 2 -52 0 -67 -14 -77
-15 -11 -11 -13 32 -12 27 1 41 3 32 6 -14 3 -18 15 -18 56 0 29 -6 63 -13 77
-13 25 -50 39 -61 22z"/>
<path d="M2293 578 c-46 -49 -23 -148 34 -148 14 0 13 3 -5 16 -18 13 -22 25
-22 74 0 46 4 61 18 69 9 6 12 11 6 11 -6 0 -20 -10 -31 -22z"/>
<path d="M2355 587 c12 -10 16 -22 13 -40 -4 -21 -1 -27 13 -27 12 0 19 7 19
20 0 22 -33 60 -52 60 -6 0 -4 -6 7 -13z"/>
<path d="M2433 589 c13 -8 17 -24 17 -74 0 -50 -4 -66 -17 -74 -14 -8 -6 -10
32 -10 28 1 42 3 33 6 -15 4 -18 16 -18 60 0 39 5 63 18 77 17 21 17 21 -5 2
-23 -19 -23 -19 -23 2 0 17 -6 22 -27 22 -24 -1 -25 -2 -10 -11z"/>
<path d="M2522 574 c-1 -18 3 -24 18 -24 25 0 26 26 2 39 -15 8 -18 5 -20 -15z"/>
<path d="M674 575 c-9 -22 12 -43 27 -28 9 9 8 16 -5 28 -15 15 -17 15 -22 0z"/>
<path d="M849 558 c10 -18 27 -55 37 -82 16 -44 19 -47 31 -30 15 21 17 38 3
29 -5 -3 -17 21 -27 55 -15 50 -22 60 -40 60 -22 0 -22 0 -4 -32z"/>
<path d="M947 579 c6 -6 9 -19 6 -28 -3 -10 0 -8 8 4 7 11 17 23 23 27 6 4 -2
8 -18 8 -22 0 -27 -3 -19 -11z"/>
<path d="M1604 576 c-9 -24 12 -44 28 -28 10 10 8 16 -5 29 -15 15 -17 15 -23
-1z"/>
<path d="M682 504 c-34 -23 -23 -74 15 -74 11 0 11 5 3 21 -9 16 -8 26 5 45
18 28 9 31 -23 8z"/>
<path d="M1095 440 c-16 -7 -17 -9 -3 -9 9 -1 20 4 23 9 7 11 7 11 -20 0z"/>
</g>
</svg>
