<?xml version="1.0" standalone="no"?>
<!DOCTYPE svg PUBLIC "-//W3C//DTD SVG 20010904//EN"
 "http://www.w3.org/TR/2001/REC-SVG-20010904/DTD/svg10.dtd">
<svg version="1.0" xmlns="http://www.w3.org/2000/svg"
 width="327.000000pt" height="154.000000pt" viewBox="0 0 327.000000 154.000000"
 preserveAspectRatio="xMidYMid meet">

<g transform="translate(0.000000,154.000000) scale(0.100000,-0.100000)"
fill="#000000" stroke="none">
<path d="M1261 1368 l0 -53 16 32 c16 32 49 53 83 53 19 0 20 -8 20 -169 0
-126 -3 -171 -12 -174 -7 -3 21 -6 62 -6 56 0 70 2 58 10 -16 9 -18 28 -18
174 l0 165 26 0 c38 0 64 -18 79 -53 l14 -32 1 53 0 52 -165 0 -165 0 1 -52z"/>
<path d="M2523 1402 c14 -16 17 -43 17 -175 0 -138 -2 -157 -17 -166 -14 -8 0
-10 52 -10 52 0 66 2 53 10 -16 9 -18 29 -18 184 l0 175 -52 0 c-49 0 -50 -1
-35 -18z"/>
<path d="M755 1370 c-3 -5 -3 -25 1 -45 5 -28 3 -36 -12 -42 -40 -14 -73 -45
-84 -79 -13 -40 -8 -53 15 -34 13 11 15 7 15 -34 0 -25 -3 -46 -7 -46 -5 0
-44 7 -88 16 -165 32 -277 -13 -341 -138 -33 -65 -44 -122 -54 -283 -5 -77
-16 -171 -25 -209 -9 -37 -14 -71 -11 -73 8 -9 27 76 40 183 7 57 15 107 19
110 3 3 11 -12 17 -35 19 -71 -16 -224 -81 -352 -16 -32 -29 -63 -29 -68 0 -5
24 -11 54 -13 l55 -3 6 40 c3 22 17 65 32 95 l26 55 18 -60 c10 -33 19 -79 19
-103 0 -46 1 -47 70 -57 31 -4 51 -1 64 8 19 14 18 15 -8 50 -39 51 -65 179
-48 236 8 24 19 41 27 41 9 0 25 11 37 25 18 21 30 25 78 25 37 0 78 9 118 25
34 14 76 25 94 25 l33 0 3 -114 c2 -115 -13 -221 -42 -290 -14 -34 -14 -34 16
-40 43 -8 101 -7 116 3 10 6 7 15 -13 39 l-26 31 29 68 c17 37 33 78 37 91 4
13 11 22 17 20 22 -8 88 -132 101 -192 13 -59 15 -61 47 -64 39 -4 68 3 94 23
19 15 19 16 -16 53 -25 26 -37 50 -42 80 -4 24 -20 70 -36 102 -39 77 -80 200
-80 240 0 61 14 72 88 68 63 -3 67 -2 70 20 4 26 15 27 73 7 57 -21 83 -46
108 -109 37 -91 92 -309 98 -388 5 -67 9 -78 24 -78 12 0 19 7 19 19 0 44 -32
327 -45 403 -18 104 -19 98 4 98 28 0 52 11 45 21 -3 5 -18 9 -33 9 -35 0 -46
13 -70 81 -22 65 -65 152 -95 192 -29 39 -95 77 -137 77 -19 0 -58 11 -87 25
-74 34 -117 33 -152 -5 -59 -63 -48 -138 33 -226 28 -32 43 -52 32 -46 -23 12
-95 86 -119 122 -23 35 -21 101 5 134 11 14 19 26 17 26 -2 0 -19 -5 -38 -10
-71 -22 -119 -28 -124 -16 -3 7 -5 7 -5 -1 -1 -7 -5 -13 -11 -13 -5 0 -10 20
-10 45 0 33 4 45 15 45 8 0 26 20 41 46 21 36 26 54 21 90 -4 39 -2 44 15 44
10 0 16 5 13 10 -8 13 -42 13 -50 0z m385 -450 c0 -5 -4 -10 -10 -10 -5 0 -10
5 -10 10 0 6 5 10 10 10 6 0 10 -4 10 -10z"/>
<path d="M1725 1299 c-11 -7 -28 -21 -37 -33 l-18 -21 0 28 c0 26 -2 27 -51
27 -46 0 -49 -1 -35 -16 23 -22 23 -196 0 -218 -14 -15 -10 -16 48 -15 35 0
57 3 51 6 -22 8 -17 156 5 183 16 20 21 21 39 10 30 -19 55 -6 51 27 -3 31
-23 38 -53 22z"/>
<path d="M1860 1299 c-55 -23 -76 -63 -45 -89 8 -6 23 -9 35 -5 21 7 27 39 10
50 -15 9 7 35 29 35 25 0 41 -20 41 -51 0 -22 -10 -32 -55 -58 -87 -49 -108
-106 -50 -133 19 -9 32 -6 64 11 23 11 41 16 41 11 0 -21 41 -32 71 -20 31 13
39 30 14 30 -12 0 -15 17 -15 93 0 80 -3 96 -19 111 -24 22 -87 29 -121 15z
m66 -195 c-7 -17 -56 -19 -57 -1 -3 29 4 43 29 66 l27 25 3 -38 c2 -21 1 -44
-2 -52z"/>
<path d="M2363 1296 c-41 -19 -63 -62 -63 -125 0 -62 16 -98 51 -117 56 -29
121 -7 150 49 12 22 12 22 -13 0 -13 -13 -36 -23 -50 -23 -33 0 -68 42 -68 81
l0 29 69 0 69 0 -8 37 c-16 67 -74 97 -137 69z m71 -22 c3 -9 6 -29 6 -45 0
-29 -2 -30 -37 -27 -36 3 -38 5 -35 33 2 17 9 36 14 43 15 17 45 15 52 -4z"/>
<path d="M2042 1283 c9 -10 37 -69 64 -130 27 -62 51 -113 54 -113 4 0 26 48
51 107 24 58 52 117 62 130 l18 23 -43 -1 c-24 -1 -35 -3 -25 -6 22 -6 21 -25
-7 -98 -26 -67 -26 -67 -65 33 -19 48 -19 52 -3 61 13 8 -1 10 -52 11 -65 0
-68 -1 -54 -17z"/>
<path d="M712 1150 c0 -14 2 -19 5 -12 2 6 2 18 0 25 -3 6 -5 1 -5 -13z"/>
<path d="M1695 875 l0 -115 40 0 c30 0 36 3 27 12 -7 7 -12 31 -12 55 0 42 1
43 33 43 45 0 77 25 77 60 0 37 -24 60 -63 60 -31 0 -31 0 -9 -16 39 -27 24
-94 -21 -94 -17 0 -18 7 -15 55 l3 55 -30 0 -30 0 0 -115z"/>
<path d="M2835 980 c-3 -6 1 -7 9 -4 18 7 21 14 7 14 -6 0 -13 -4 -16 -10z"/>
<path d="M2880 986 c0 -2 8 -10 18 -17 15 -13 16 -12 3 4 -13 16 -21 21 -21
13z"/>
<path d="M2248 943 c-18 -18 -24 -33 -19 -39 6 -5 11 -38 13 -74 3 -62 4 -65
29 -68 16 -2 31 4 40 15 12 16 12 17 -2 6 -23 -19 -29 -7 -29 59 0 51 3 60 23
68 l22 9 -22 0 c-16 1 -23 8 -25 27 l-3 26 -27 -29z"/>
<path d="M2850 946 c0 -2 7 -6 15 -10 8 -3 15 -1 15 4 0 6 -7 10 -15 10 -8 0
-15 -2 -15 -4z"/>
<path d="M2896 923 c-6 -14 -5 -15 5 -6 7 7 10 15 7 18 -3 3 -9 -2 -12 -12z"/>
<path d="M2807 923 c-16 -3 -31 -11 -34 -19 -3 -8 -10 -14 -15 -14 -6 0 -8 7
-4 15 4 11 -2 15 -22 15 l-27 0 0 -80 0 -80 27 0 c26 0 27 2 30 63 3 62 3 62
33 62 20 0 31 6 33 18 2 9 8 14 14 11 7 -4 8 -2 4 4 -4 7 -8 11 -9 11 -1 -1
-15 -4 -30 -6z"/>
<path d="M1912 908 c-20 -20 -15 -48 9 -48 17 0 20 4 15 24 -4 15 -1 26 7 29
8 4 7 6 -3 6 -9 1 -21 -4 -28 -11z"/>
<path d="M1967 908 c15 -18 12 -120 -4 -126 -22 -7 -27 27 -8 48 22 24 14 25
-25 5 -29 -15 -46 -47 -35 -65 8 -12 45 -13 64 -1 9 6 21 5 31 -1 10 -6 26 -8
36 -4 13 5 15 9 7 14 -7 4 -13 37 -15 72 -3 64 -4 65 -32 68 -24 3 -28 1 -19
-10z"/>
<path d="M2075 840 l0 -80 30 0 30 0 -2 63 c-1 34 -2 70 -2 80 -1 12 -9 17
-28 17 l-28 0 0 -80z"/>
<path d="M2150 905 c-7 -8 -9 -15 -4 -15 5 0 19 -3 32 -6 18 -5 22 -2 22 15 0
25 -31 29 -50 6z"/>
<path d="M2350 901 c13 -25 13 -97 0 -122 -10 -17 -7 -19 22 -19 l33 0 0 67
c0 61 2 68 20 68 18 0 20 -7 20 -68 0 -65 1 -67 25 -67 25 0 25 0 20 77 -5 77
-5 78 -33 81 -16 2 -35 -2 -43 -9 -10 -8 -14 -8 -14 0 0 6 -14 11 -30 11 -27
0 -30 -2 -20 -19z"/>
<path d="M2556 898 c-9 -12 -16 -41 -16 -64 0 -34 5 -47 26 -63 34 -27 47 -26
76 2 13 12 19 19 14 15 -27 -21 -76 9 -76 45 0 13 10 17 45 17 30 0 45 4 45
13 0 21 -30 57 -48 57 -12 0 -13 -3 -4 -12 22 -22 14 -48 -13 -48 -27 0 -35
26 -13 48 9 9 8 12 -4 12 -9 0 -24 -10 -32 -22z"/>
<path d="M1535 458 c9 -43 14 -47 27 -23 11 19 11 19 18 0 6 -18 8 -18 19 4 8
15 9 21 2 17 -7 -4 -11 1 -11 13 0 28 -16 27 -25 -1 l-8 -23 -4 23 c-2 12 -9
22 -14 22 -7 0 -8 -13 -4 -32z"/>
<path d="M1610 479 c0 -5 5 -7 10 -4 6 3 10 8 10 11 0 2 -4 4 -10 4 -5 0 -10
-5 -10 -11z"/>
<path d="M1640 479 c0 -5 5 -7 10 -4 6 3 10 8 10 11 0 2 -4 4 -10 4 -5 0 -10
-5 -10 -11z"/>
<path d="M1718 484 c-5 -4 -8 -21 -8 -38 1 -29 1 -30 15 -12 13 17 15 18 15 3
0 -9 5 -17 10 -17 6 0 10 12 10 26 0 19 -4 25 -14 21 -9 -4 -16 1 -18 9 -2 9
-6 12 -10 8z"/>
<path d="M1808 483 c-2 -5 -3 -19 -3 -33 0 -20 5 -25 25 -25 19 0 25 6 31 33
3 17 3 32 -2 32 -5 0 -9 -13 -9 -30 0 -21 -5 -30 -16 -30 -12 0 -14 7 -9 30 4
18 3 30 -4 30 -5 0 -11 -3 -13 -7z"/>
<path d="M1957 483 c-4 -3 -2 -12 4 -19 6 -8 9 -21 5 -29 -3 -9 0 -15 10 -15
8 0 13 4 10 8 -3 5 2 21 10 37 13 24 12 26 -1 15 -10 -9 -15 -9 -15 -1 0 12
-13 15 -23 4z"/>
<path d="M2167 484 c-3 -3 -1 -19 5 -36 6 -18 14 -26 20 -20 5 5 5 19 -1 35
-11 28 -14 31 -24 21z"/>
<path d="M2205 478 c-3 -9 -1 -26 5 -38 l12 -22 19 28 c21 32 24 44 10 44 -5
0 -11 -10 -14 -22 -4 -23 -4 -23 -14 2 -9 21 -12 22 -18 8z"/>
<path d="M2279 488 c-8 -23 -8 -68 1 -68 6 0 10 15 8 35 -2 30 -5 42 -9 33z"/>
<path d="M2309 488 c-7 -32 -7 -68 0 -68 12 0 20 59 9 66 -4 3 -8 4 -9 2z"/>
<path d="M2347 483 c-11 -10 -8 -63 3 -63 6 0 10 16 10 35 0 36 -2 40 -13 28z"/>
<path d="M2408 455 c-2 -19 0 -35 4 -35 4 0 8 7 8 17 0 14 2 14 20 -2 24 -22
27 -4 4 30 -22 34 -31 31 -36 -10z"/>
<path d="M2456 475 c4 -8 8 -15 10 -15 2 0 4 7 4 15 0 8 -4 15 -10 15 -5 0 -7
-7 -4 -15z"/>
<path d="M2905 458 c8 -38 11 -41 23 -37 12 5 -6 69 -19 69 -7 0 -8 -12 -4
-32z"/>
<path d="M2959 488 c-8 -22 -8 -68 0 -68 6 0 11 16 11 35 0 19 -2 35 -5 35 -3
0 -5 -1 -6 -2z"/>
<path d="M1676 473 c-9 -10 -7 -53 3 -53 11 0 21 49 11 55 -4 2 -10 2 -14 -2z"/>
<path d="M2728 449 c-4 -27 -2 -30 21 -27 20 2 26 9 28 31 2 27 -11 37 -20 15
-4 -10 -6 -10 -6 0 -2 25 -19 11 -23 -19z"/>
<path d="M1885 460 c-3 -5 -4 -14 -1 -19 4 -5 0 -12 -6 -15 -7 -3 -4 -5 6 -3
12 1 20 11 21 25 2 23 -9 30 -20 12z"/>
<path d="M2010 455 c-10 -11 -10 -19 -2 -27 15 -15 44 -2 40 19 -4 23 -22 27
-38 8z m30 -4 c0 -6 -4 -13 -10 -16 -5 -3 -10 1 -10 9 0 9 5 16 10 16 6 0 10
-4 10 -9z"/>
<path d="M2077 463 c-15 -15 -7 -42 13 -40 11 1 20 4 20 8 0 4 3 16 6 26 5 17
5 17 -9 1 -17 -22 -28 -23 -21 -3 6 16 2 20 -9 8z"/>
<path d="M2492 458 c-19 -19 -14 -38 11 -38 16 0 18 3 9 9 -11 7 -10 9 3 15 9
3 13 10 10 16 -8 13 -18 13 -33 -2z"/>
<path d="M2540 444 c0 -33 34 -30 38 4 2 19 1 19 -4 2 -3 -11 -9 -20 -14 -20
-4 0 -6 9 -3 20 3 11 0 20 -6 20 -6 0 -11 -12 -11 -26z"/>
<path d="M2602 458 c-19 -19 -14 -38 11 -38 16 0 18 3 9 9 -11 7 -10 9 3 15 9
3 13 10 10 16 -8 13 -18 13 -33 -2z"/>
<path d="M2668 462 c-19 -4 -26 -42 -8 -42 6 0 10 6 10 14 0 8 6 16 13 19 17
6 5 14 -15 9z"/>
<path d="M2800 455 c-14 -17 -5 -35 18 -34 11 0 12 3 5 6 -7 2 -13 12 -12 21
0 11 2 12 6 4 2 -6 9 -10 14 -6 10 6 3 24 -10 24 -5 0 -14 -7 -21 -15z"/>
<path d="M3003 463 c-18 -7 -16 -43 2 -43 18 0 31 28 19 39 -5 5 -15 6 -21 4z
m13 -30 c-10 -10 -19 5 -10 18 6 11 8 11 12 0 2 -7 1 -15 -2 -18z"/>
<path d="M3068 463 c-10 -3 -18 -14 -18 -26 0 -20 0 -20 15 -1 13 17 14 17 15
2 0 -25 20 -23 20 1 0 23 -8 29 -32 24z"/>
<path d="M3135 460 c3 -6 -1 -7 -9 -4 -11 4 -16 0 -16 -15 0 -15 6 -21 23 -21
18 0 19 2 7 10 -10 6 -11 10 -2 10 6 0 12 7 12 15 0 8 -5 15 -11 15 -5 0 -7
-4 -4 -10z"/>
<path d="M1633 440 c-1 -11 2 -20 8 -20 5 0 9 9 9 20 0 11 -4 20 -8 20 -4 0
-8 -9 -9 -20z"/>
<path d="M2880 441 c-6 -12 -7 -21 -1 -21 10 0 24 30 17 37 -2 3 -9 -5 -16
-16z"/>
</g>
</svg>
