<?xml version="1.0" standalone="no"?>
<!DOCTYPE svg PUBLIC "-//W3C//DTD SVG 20010904//EN"
 "http://www.w3.org/TR/2001/REC-SVG-20010904/DTD/svg10.dtd">
<svg version="1.0" xmlns="http://www.w3.org/2000/svg"
 width="368.000000pt" height="137.000000pt" viewBox="0 0 368.000000 137.000000"
 preserveAspectRatio="xMidYMid meet">

<g transform="translate(0.000000,137.000000) scale(0.100000,-0.100000)"
fill="#000000" stroke="none">
<path d="M50 1015 l0 -305 200 0 200 0 0 305 0 305 -200 0 -200 0 0 -305z
m280 160 c0 -28 -4 -35 -20 -35 -19 0 -20 -7 -20 -160 l0 -160 -40 0 -40 0 0
160 c0 153 -1 160 -20 160 -16 0 -20 7 -20 35 l0 35 80 0 80 0 0 -35z"/>
<path d="M500 1015 l0 -305 205 0 205 0 0 305 0 305 -205 0 -205 0 0 -305z
m249 179 c52 -37 66 -129 28 -185 l-24 -34 24 -69 c13 -38 23 -73 23 -78 0 -5
-17 -8 -37 -6 -37 3 -38 4 -56 66 -10 34 -22 62 -25 62 -4 0 -5 -29 -4 -65 l4
-65 -41 0 -41 0 0 195 0 195 63 0 c42 0 70 -5 86 -16z"/>
<path d="M678 1085 c-3 -71 9 -84 38 -40 19 30 11 81 -16 95 -17 9 -19 4 -22
-55z"/>
<path d="M960 1015 l0 -305 200 0 200 0 0 305 0 305 -200 0 -200 0 0 -305z
m269 28 c17 -93 34 -180 37 -195 5 -26 3 -28 -29 -28 -32 0 -36 3 -44 38 -7
28 -14 38 -32 40 -28 4 -41 -12 -41 -50 0 -25 -4 -28 -35 -28 -23 0 -35 5 -35
14 0 7 16 94 35 192 19 99 35 180 35 182 0 1 17 2 39 2 l39 0 31 -167z"/>
<path d="M1150 1043 c0 -11 -3 -35 -6 -52 -6 -26 -4 -31 13 -31 19 0 20 4 12
47 -10 50 -19 68 -19 36z"/>
<path d="M1410 1015 l0 -305 200 0 200 0 0 305 0 305 -200 0 -200 0 0 -305z
m173 163 c4 -18 12 -71 19 -118 l12 -85 13 85 c25 162 20 150 59 150 34 0 35
-2 30 -27 -3 -16 -15 -80 -26 -143 -41 -234 -36 -220 -79 -220 l-37 0 -32 188
c-18 103 -33 190 -32 195 0 4 15 7 34 7 30 0 34 -3 39 -32z"/>
<path d="M1870 1015 l0 -305 200 0 200 0 0 305 0 305 -200 0 -200 0 0 -305z
m270 160 c0 -34 -1 -35 -40 -35 l-40 0 0 -45 c0 -45 0 -45 35 -45 33 0 35 -2
35 -35 0 -33 -2 -35 -35 -35 -35 0 -35 0 -35 -44 l0 -45 43 -3 c39 -3 42 -5
45 -35 l3 -33 -80 0 -81 0 0 195 0 195 75 0 75 0 0 -35z"/>
<path d="M2320 1015 l0 -305 200 0 200 0 0 305 0 305 -200 0 -200 0 0 -305z
m200 35 l0 -160 35 0 c33 0 35 -2 35 -35 l0 -35 -70 0 -70 0 0 195 0 195 35 0
35 0 0 -160z"/>
<path d="M2770 1015 l0 -305 205 0 205 0 0 305 0 305 -205 0 -205 0 0 -305z"/>
<path d="M3230 1015 l0 -305 200 0 200 0 0 305 0 305 -200 0 -200 0 0 -305z"/>
<path d="M50 355 l0 -305 200 0 200 0 0 305 0 305 -200 0 -200 0 0 -305z m255
165 c34 -32 48 -87 36 -140 -11 -50 -33 -76 -77 -92 -33 -12 -34 -13 -34 -70
l0 -58 -40 0 -40 0 0 196 0 196 65 -4 c51 -3 70 -9 90 -28z"/>
<path d="M230 415 c0 -36 4 -65 8 -65 18 0 32 26 32 61 0 47 -8 69 -26 69 -11
0 -14 -16 -14 -65z"/>
<path d="M500 355 l0 -305 205 0 205 0 0 305 0 305 -205 0 -205 0 0 -305z
m280 -2 l37 -193 -38 0 c-35 0 -38 2 -41 33 -3 28 -7 32 -35 35 -27 3 -33 0
-33 -17 0 -39 -11 -51 -47 -51 -24 0 -34 4 -31 12 3 7 20 95 39 196 l34 183
39 -3 40 -3 36 -192z"/>
<path d="M696 373 c-9 -58 -7 -73 9 -73 13 0 15 9 9 53 -8 65 -10 67 -18 20z"/>
<path d="M960 355 l0 -305 200 0 200 0 0 305 0 305 -200 0 -200 0 0 -305z
m256 161 c30 -30 34 -40 34 -88 0 -35 -7 -64 -19 -84 -19 -32 -19 -32 4 -108
l23 -76 -38 0 -39 0 -17 60 c-9 33 -21 63 -25 66 -5 3 -9 -24 -9 -60 l0 -66
-35 0 -35 0 0 195 0 195 61 0 c56 0 64 -3 95 -34z"/>
<path d="M1130 420 c0 -46 3 -60 15 -60 31 0 48 83 23 108 -27 27 -38 13 -38
-48z"/>
<path d="M1410 355 l0 -305 200 0 200 0 0 305 0 305 -200 0 -200 0 0 -305z
m290 160 c0 -31 -3 -35 -25 -35 l-25 0 0 -160 0 -160 -35 0 -35 0 0 160 0 160
-25 0 c-22 0 -25 4 -25 35 l0 35 85 0 85 0 0 -35z"/>
<path d="M1870 355 l0 -305 200 0 200 0 0 305 0 305 -200 0 -200 0 0 -305z
m197 103 l31 -93 1 93 1 92 35 0 35 0 0 -195 0 -195 -34 0 c-34 0 -34 0 -64
87 l-30 88 -1 -87 -1 -88 -35 0 -35 0 0 195 0 195 33 0 c32 0 33 -1 64 -92z"/>
<path d="M2320 355 l0 -305 200 0 200 0 0 305 0 305 -200 0 -200 0 0 -305z
m280 160 c0 -34 -1 -35 -40 -35 l-40 0 0 -45 c0 -45 0 -45 35 -45 33 0 35 -2
35 -35 0 -33 -2 -35 -35 -35 -35 0 -35 0 -35 -44 0 -44 0 -45 38 -48 34 -3 37
-6 40 -36 l3 -32 -80 0 -81 0 0 195 0 195 80 0 80 0 0 -35z"/>
<path d="M2770 355 l0 -305 205 0 205 0 0 305 0 305 -205 0 -205 0 0 -305z
m234 185 c43 -16 68 -67 63 -127 -2 -30 -11 -61 -20 -71 -22 -24 -21 -39 7
-117 l24 -66 -41 3 -42 3 -20 65 -20 65 -3 -67 -3 -68 -39 0 -40 0 0 195 0
195 54 0 c30 0 66 -4 80 -10z"/>
<path d="M2950 420 c0 -33 2 -60 4 -60 20 0 36 17 42 45 7 37 -9 75 -31 75
-12 0 -15 -14 -15 -60z"/>
<path d="M3230 355 l0 -305 200 0 200 0 0 305 0 305 -200 0 -200 0 0 -305z
m268 153 l3 -37 -36 6 c-26 4 -40 2 -46 -8 -13 -21 -13 -22 41 -89 50 -63 67
-110 55 -152 -18 -58 -82 -90 -138 -69 -23 9 -27 16 -27 47 0 30 3 35 18 29
38 -16 53 -17 67 -5 23 19 19 33 -37 105 -47 61 -53 74 -53 118 0 41 4 52 29
73 23 20 37 24 75 22 45 -3 46 -4 49 -40z"/>
</g>
</svg>
